<?xml version="1.0" encoding="utf-8"?>
<!-- Generator: Adobe Illustrator 24.1.2, SVG Export Plug-In . SVG Version: 6.00 Build 0)  -->
<svg version="1.1" id="Warstwa_1" xmlns="http://www.w3.org/2000/svg" xmlns:xlink="http://www.w3.org/1999/xlink" x="0px" y="0px"
	 viewBox="0 0 500 500" style="enable-background:new 0 0 500 500; color:'#eee'" xml:space="preserve">
<g>
	<path d="M348,205c-5,54-42.7,190-99,190S144,261.3,144,205S269.7,51.9,246,103c-3.7,8-7,15.4-9.8,22.4
		C212.8,137.2,163,185.1,163,217c0,45.6,39.4,154,85.1,154c45.6,0,76.2-110.2,80.2-154c3.3-35.9-100.3,41.6-104.3-9.9
		C247.9,239,351.7,165,348,205z"/>
	<ellipse cx="212" cy="246.5" rx="22" ry="6.5"/>
	<ellipse cx="280" cy="246.5" rx="22" ry="6.5"/>
	<path d="M280,313.7C219,326,264,338,246,338c-18.8,0-27-14.3-34-24.3c-1.3-1.9,15.2-3.7,34-3.7S282.3,313.3,280,313.7z"/>
</g>
</svg>
